<?xml version="1.0" encoding="UTF-8" standalone="no"?>
<!-- Created with Inkscape (http://www.inkscape.org/) -->

<svg
   xmlns:dc="http://purl.org/dc/elements/1.1/"
   xmlns:cc="http://creativecommons.org/ns#"
   xmlns:rdf="http://www.w3.org/1999/02/22-rdf-syntax-ns#"
   xmlns:svg="http://www.w3.org/2000/svg"
   xmlns="http://www.w3.org/2000/svg"
   xmlns:sodipodi="http://sodipodi.sourceforge.net/DTD/sodipodi-0.dtd"
   xmlns:inkscape="http://www.inkscape.org/namespaces/inkscape"
   width="256px"
   height="256px"
   viewBox="0 0 256 256"
   version="1.1"
   id="SVGRoot"
   inkscape:version="0.92.3 (2405546, 2018-03-11)"
   sodipodi:docname="a-icon-2.svg"
   inkscape:export-filename="C:\Users\franz\OneDrive\Documents\a-icon2.png"
   inkscape:export-xdpi="96"
   inkscape:export-ydpi="96">
  <sodipodi:namedview
     id="base"
     pagecolor="#ffffff"
     bordercolor="#666666"
     borderopacity="1.0"
     inkscape:pageopacity="1"
     inkscape:pageshadow="2"
     inkscape:zoom="1.9887378"
     inkscape:cx="87.373304"
     inkscape:cy="128.17879"
     inkscape:document-units="px"
     inkscape:current-layer="layer2"
     showgrid="false"
     inkscape:window-width="1920"
     inkscape:window-height="1017"
     inkscape:window-x="1912"
     inkscape:window-y="-8"
     inkscape:window-maximized="1"
     inkscape:grid-bbox="true" />
  <defs
     id="defs1375" />
  <metadata
     id="metadata1378">
    <rdf:RDF>
      <cc:Work
         rdf:about="">
        <dc:format>image/svg+xml</dc:format>
        <dc:type
           rdf:resource="http://purl.org/dc/dcmitype/StillImage" />
        <dc:title></dc:title>
      </cc:Work>
    </rdf:RDF>
  </metadata>
  <g
     id="layer1"
     inkscape:groupmode="layer"
     inkscape:label="Layer 1"
     style="display:none;opacity:0.36148652">
    <text
       xml:space="preserve"
       style="font-style:normal;font-weight:normal;font-size:57.54321289px;line-height:1;font-family:sans-serif;letter-spacing:0px;word-spacing:0px;fill:#000000;fill-opacity:1;stroke:none;stroke-width:1.43858027"
       x="56.461876"
       y="205.27368"
       id="text1944"
       transform="scale(0.82439231,1.2130147)"><tspan
         sodipodi:role="line"
         id="tspan1942"
         x="56.461876"
         y="205.27368"
         style="font-size:276.20742798px;stroke-width:1.43858027">A</tspan></text>
  </g>
  <g
     inkscape:groupmode="layer"
     id="layer2"
     inkscape:label="Layer 2">
    <path
       style="fill:#000000;fill-opacity:1"
       id="path1947"
       d="m 47.998142,243.07709 c 1.74383,-3.8683 3.24476,-7.83351 4.739347,-11.80242 1.155666,-2.91915 2.394381,-5.80295 3.555653,-8.71886 1.136237,-2.55593 1.987785,-5.22071 3.065188,-7.80082 1.016262,-2.51824 1.855133,-5.10624 2.723524,-7.68031 0.817479,-2.50137 1.39823,-5.06858 2.130921,-7.59204 0.741742,-2.44278 1.732439,-4.79423 2.36643,-7.26893 0.903972,-2.74879 1.498592,-5.57662 2.278686,-8.3598 0.834865,-2.77815 1.542065,-5.59786 2.378452,-8.37472 0.78921,-2.42735 1.52893,-4.87498 2.20511,-7.3372 0.547786,-2.80447 1.127892,-5.60464 1.922126,-8.35204 0.728735,-2.63352 1.473841,-5.24825 2.292012,-7.85554 0.546598,-2.55827 1.274308,-5.07461 1.77299,-7.64422 0.772345,-2.7115 1.271848,-5.48486 2.136891,-8.1683 0.679051,-2.47348 1.253708,-4.97685 1.846081,-7.47502 0.654495,-2.76301 1.246495,-5.55665 2.008304,-8.293 0.785603,-2.5098 1.651164,-4.99418 2.547275,-7.4666 0.943521,-2.69147 1.710094,-5.45027 2.437609,-8.20892 0.916503,-2.43442 1.655758,-4.923084 2.462049,-7.3949 0.867621,-2.874457 1.816736,-5.723146 2.677926,-8.60072 0.970446,-3.459866 1.902475,-6.928222 2.839864,-10.397877 0.805388,-3.458192 1.74388,-6.886296 2.80678,-10.274017 0.89301,-3.24979 1.57606,-6.554908 2.43725,-9.813883 0.73848,-3.330186 1.81666,-6.570304 2.5534,-9.899862 0.26887,-2.645891 1.0101,-5.192457 1.54653,-7.787168 0.35612,-2.332354 1.1756,-4.542714 1.57848,-6.868223 0.74475,-2.294325 1.17711,-4.658663 1.73781,-6.997882 0.61131,-2.767883 1.5753,-5.434508 2.21148,-8.195203 2.74504,-9.3250087 5.07488,-3.911698 22.59268,-1.854379 0.15058,0.01769 0.54583,2.033698 0.77954,3.139366 0.69451,4.959515 1.22054,9.944368 2.00139,14.892526 0.63361,5.102705 1.70453,10.115279 2.98065,15.089879 1.4163,4.618014 2.65679,9.269123 3.80799,13.958752 1.34536,5.365123 2.2085,10.833626 3.57235,16.192167 1.19196,5.525079 2.94635,10.881196 4.64737,16.260011 2.01222,5.487693 3.69517,11.065533 5.25181,16.695553 1.53787,6.31473 3.10208,12.62807 5.04519,18.83196 1.68072,5.14993 3.40527,10.28092 5.02376,15.45054 1.79476,4.81452 3.41864,9.69594 4.89709,14.61634 1.57046,4.36888 2.60013,8.90336 3.91637,13.35078 1.18742,3.88795 2.03532,7.87512 3.23057,11.75847 1.05084,3.39414 1.90534,6.84286 2.84738,10.26722 0.96296,3.97881 1.75271,8.01551 2.42464,12.05604 1.05902,3.47031 1.31906,7.14273 2.28729,10.62233 0.63575,2.5484 1.39395,5.05922 2.03434,7.60658 0.43921,2.82007 1.22838,5.56059 1.72998,8.36954 1.49222,11.11188 2.03054,4.5252 -20.60222,4.20253 -0.78962,-2.91654 -2.08508,-5.74172 -3.41146,-8.45904 -2.16768,-4.74092 -5.35407,-8.88579 -8.13505,-13.27121 -3.06877,-4.23553 -6.48871,-8.24461 -10.36807,-11.75756 -3.61212,-3.02945 -7.08754,-6.20891 -10.51624,-9.4427 -3.06143,-2.77765 -6.29882,-5.41935 -9.62548,-7.88135 -2.72028,-2.06527 -5.4487,-4.15147 -8.35031,-5.95834 -2.70282,-1.74602 -5.52379,-3.34497 -8.43913,-4.71212 -2.72749,-1.72983 -5.6961,-3.10538 -8.33583,-4.96393 -2.02987,-1.35704 -4.39342,-2.17028 -6.406351,-3.52174 -2.123684,-1.0661 -4.29563,-1.93784 -6.633698,-2.40985 -0.4394,-0.0608 -0.88784,-0.0748 -1.318201,-0.1823 -0.811787,-0.20277 -1.566351,-0.59504 -2.371395,-0.82311 -1.220145,-0.34567 -2.390302,-0.5043 -3.589822,-0.93644 -2.024158,-0.71441 -4.836583,-0.93895 -6.230212,-2.75361 -0.0092,-1.02152 -0.235218,-1.89479 0.69665,-2.69171 0.915587,-0.783 6.013464,-0.5364 7.193381,-0.55609 5.762021,0.1413 7.03398,-6.66806 12.773812,-7.07565 6.532346,-0.43491 17.189916,-1.67858 23.734316,-1.73846 6.64781,0.0974 27.06139,-1.49371 33.6881,-2.01269 5.23039,-0.30062 -2.99721,8.01066 2.17753,7.19349 4.13404,-0.85869 6.49449,-8.56111 10.70202,-8.89542 2.87404,0.007 11.9392,-0.45529 14.75608,-0.91225 v 0 l 17.30076,9.72945 v 0 c -0.33097,0.0428 -0.66193,0.0856 -0.9929,0.12836 -2.89369,0.31353 -5.687,1.18714 -8.59341,1.27621 -4.21916,0.21933 -8.4191,0.64399 -12.55164,1.56124 -5.17919,1.05992 -10.47088,1.51853 -15.74203,1.8374 -6.65834,0.53359 -13.30335,0.93814 -19.98934,0.73336 -6.51835,0.0449 -13.03975,0.10305 -19.54936,0.47633 -5.7078,0.37275 -11.40118,1.07121 -17.12833,0.93213 -0.83962,0.007 -6.24103,0.41379 -6.8401,0.0143 -0.501156,-0.33416 -0.524513,-1.34152 -0.584997,-1.84225 2.028137,0.4209 3.926177,1.60978 6.007927,1.91221 2.43774,0.57239 4.80969,1.3675 7.26435,1.86948 2.34388,0.7427 4.61799,1.72433 6.74088,2.96983 2.19603,1.06206 4.28086,2.35282 6.35149,3.63755 2.73279,1.63003 5.4715,3.26298 8.29562,4.7293 2.8854,1.53314 5.75946,3.09933 8.45027,4.96112 2.83326,1.96902 5.65186,3.95867 8.34198,6.12196 3.2365,2.63006 6.58663,5.13616 9.54493,8.08531 3.44269,3.22021 7.00364,6.30429 10.51756,9.44555 3.82614,3.74233 7.29277,7.85105 10.31715,12.27024 2.88259,4.4337 6.07614,8.68932 8.29298,13.51743 1.38787,2.92058 2.86162,5.88697 3.63008,9.03673 -24.70486,1.55758 -19.82745,7.63742 -21.44676,-3.46467 -0.51512,-2.75372 -1.2637,-5.45575 -1.73851,-8.21724 -0.67781,-2.54361 -1.41489,-5.06709 -2.02057,-7.62996 -0.78657,-3.57595 -1.22287,-7.23059 -2.17549,-10.7762 -0.70129,-3.96927 -1.45468,-7.94263 -2.4622,-11.84472 -0.95314,-3.41008 -1.84155,-6.83758 -2.85191,-10.23196 -1.10884,-3.90472 -2.01857,-7.86588 -3.16261,-11.76196 -1.30383,-4.44212 -2.34198,-8.96208 -3.87284,-13.33598 -1.50069,-4.90695 -3.13063,-9.77217 -4.8816,-14.59574 -1.62702,-5.15972 -3.34518,-10.28927 -4.92692,-15.4631 -1.90262,-6.23575 -3.4658,-12.56866 -5.06,-18.88896 -1.57766,-5.60526 -3.3573,-11.13618 -5.31718,-16.620102 -1.72609,-5.411443 -3.36835,-10.840327 -4.62376,-16.38589 -1.34392,-5.369707 -2.24772,-10.836578 -3.6304,-16.199336 -1.17283,-4.68309 -2.47051,-9.322735 -3.84103,-13.952478 -1.23569,-5.042986 -2.25239,-10.120971 -2.90673,-15.276033 -0.77692,-4.899816 -1.31545,-9.838211 -2.17935,-14.723134 -0.14214,-0.517903 -0.25787,-1.043789 -0.42643,-1.553709 -0.12868,-0.3893 -0.87239,-1.105994 -0.46373,-1.139286 36.46891,-2.970966 22.06469,-6.036793 19.4163,1.374462 -0.60566,2.787905 -1.57731,5.462297 -2.19008,8.247667 -0.59283,2.269029 -0.806,4.636299 -1.72151,6.82356 -0.36407,2.368247 -1.14391,4.601501 -1.57989,6.941803 -0.50399,2.621977 -1.36552,5.153206 -1.6022,7.825791 -0.72998,3.366544 -1.8662,6.618637 -2.59737,9.985705 -0.86097,3.292873 -1.56262,6.6253 -2.40711,9.918977 -1.07277,3.352625 -2.08418,6.730409 -2.85495,10.166916 -0.88974,3.499342 -1.86392,6.973988 -2.80552,10.458058 -0.82992,2.900911 -1.75065,5.771435 -2.62017,8.656823 -0.7719,2.443796 -1.42642,4.927026 -2.47671,7.272466 -0.71576,2.83466 -1.53742,5.64936 -2.43607,8.42878 -0.93036,2.41672 -1.68227,4.90052 -2.52626,7.34792 -0.91178,2.62679 -1.31364,5.45093 -2.0174,8.13896 -0.57835,2.56649 -1.20179,5.11905 -1.82875,7.67101 -0.88368,2.59003 -1.39958,5.25282 -2.15419,7.88537 -0.482775,2.65218 -1.247212,5.23222 -1.752016,7.87828 -0.782261,2.62004 -1.688423,5.18342 -2.331543,7.8467 -0.855147,2.70337 -1.381307,5.49894 -1.901952,8.28166 -0.645371,2.51326 -1.406339,5.00015 -2.20082,7.46748 -0.992897,2.68031 -1.492305,5.55871 -2.400445,8.27282 -0.7733,2.76094 -1.347975,5.56712 -2.258931,8.2894 -0.59227,2.54091 -1.549086,4.94564 -2.355036,7.42107 -0.887958,2.46428 -1.271542,5.11672 -2.127183,7.59996 -0.838496,2.65263 -1.849282,5.24761 -2.771285,7.87088 -1.128229,2.53144 -1.874393,5.20168 -3.030362,7.72016 -1.101858,2.94767 -2.521794,5.76961 -3.665814,8.70441 -1.521609,3.9743 1.812383,18.87197 -6.752668,15.43007 l -18.862893,-4.38563 z"
       inkscape:connector-curvature="0"
       sodipodi:nodetypes="cccccccccccccccccccccccccccccccccccccccccccccccccccccccccccccccccccccccccccccccccccccccccccccccccccccccccccccccscccccccccccccccccccccccccccccc" />
  </g>
</svg>
